<?xml version="1.0" encoding="UTF-8"?>
<svg xmlns="http://www.w3.org/2000/svg" xmlns:xlink="http://www.w3.org/1999/xlink" version="1.1" viewBox="0 0 147.4 136.1">
  <defs>
    <style>
      .cls-1 {
        fill: url(#Sfumatura_senza_nome_3);
      }
    </style>
    <linearGradient id="Sfumatura_senza_nome_3" data-name="Sfumatura senza nome 3" x1="31.7" y1="556" x2="115.8" y2="441.2" gradientTransform="translate(0 567.1) scale(1 -1)" gradientUnits="userSpaceOnUse">
      <stop offset="0" stop-color="#2cbce3"/>
      <stop offset="1" stop-color="#9e75b2"/>
    </linearGradient>
  </defs>
  <!-- Generator: Adobe Illustrator 28.7.0, SVG Export Plug-In . SVG Version: 1.2.0 Build 136)  -->
  <g>
    <g id="Livello_1">
      <path class="cls-1" d="M41.6,20.2h63.8c4,0,7.2-3.2,7.2-7.2s-3.2-7.2-7.2-7.2h-63.8c-4,0-7.2,3.2-7.2,7.2s3.2,7.2,7.2,7.2ZM94.9,67.9c0-4-3.2-7.2-7.2-7.2H10c-4,0-7.2,3.2-7.2,7.2s3.2,7.2,7.2,7.2h77.6c4,0,7.2-3.2,7.2-7.2ZM61,40.3h0c0,4,3.2,7.2,7.2,7.2h53.4c4,0,7.2-3.2,7.2-7.2h0c0-4-3.2-7.2-7.2-7.2h-53.4c-4,0-7.2,3.2-7.2,7.2ZM26,47.5h18.2c4,0,7.2-3.2,7.2-7.2h0c0-4-3.2-7.2-7.2-7.2h-18.2c-4,0-7.2,3.2-7.2,7.2h0c0,4,3.2,7.2,7.2,7.2ZM121.6,88.3H26c-4,0-7.2,3.2-7.2,7.2h0c0,4,3.2,7.2,7.2,7.2h95.6c4,0,7.2-3.2,7.2-7.2h0c0-4-3.2-7.2-7.2-7.2ZM137.4,60.7h-25.8c-4,0-7.2,3.2-7.2,7.2s3.2,7.2,7.2,7.2h25.8c4,0,7.2-3.2,7.2-7.2s-3.2-7.2-7.2-7.2ZM105.2,115.8h-32.2c-4,0-7.2,3.2-7.2,7.2h0c0,4,3.2,7.2,7.2,7.2h32.2c4,0,7.2-3.2,7.2-7.2h0c0-4-3.2-7.2-7.2-7.2ZM50.5,115.8h-8.9c-4,0-7.2,3.2-7.2,7.2h0c0,4,3.2,7.2,7.2,7.2h8.9c4,0,7.2-3.2,7.2-7.2h0c0-4-3.2-7.2-7.2-7.2Z"/>
    </g>
  </g>
</svg>