<?xml version="1.0" encoding="UTF-8"?>
<svg xmlns="http://www.w3.org/2000/svg" xmlns:xlink="http://www.w3.org/1999/xlink" version="1.1" viewBox="0 0 400 400">
  <defs>
    <style>
      .cls-1 {
        fill: none;
        stroke: #d6dfe9;
        stroke-linecap: round;
        stroke-linejoin: round;
        stroke-width: 16px;
      }
    </style>
    <symbol id="cloud" viewBox="0 0 360 232">
      <use width="360" height="232" xlink:href="#cloud_2"/>
    </symbol>
    <symbol id="cloud_2" viewBox="0 0 360 232">
      <path class="cls-1" d="M296,224c30.9,0,56-25.1,56-56s-25.1-56-56-56-1.7,0-2.5.1c1.6-6.5,2.5-13.2,2.5-20.1,0-46.4-37.6-84-84-84s-56.6,16-71.4,39.9c-8.4-5-18.1-7.9-28.6-7.9-30.9,0-56,25.1-56,56s.3,6.1.8,9.1c-27.8,5.3-48.8,29.6-48.8,58.9s26.9,60,60,60"/>
    </symbol>
  </defs>
  <!-- Generator: Adobe Illustrator 28.7.1, SVG Export Plug-In . SVG Version: 1.2.0 Build 142)  -->
  <g>
    <g id="Livello_1">
      <use width="360" height="232" transform="translate(20 84)" xlink:href="#cloud"/>
    </g>
  </g>
</svg>