<?xml version="1.0" encoding="UTF-8"?>
<svg xmlns="http://www.w3.org/2000/svg" xmlns:xlink="http://www.w3.org/1999/xlink" version="1.1" viewBox="0 0 400 400">
  <defs>
    <style>
      .cls-1, .cls-2, .cls-3 {
        fill: none;
      }

      .cls-2 {
        stroke: #d6dfe9;
        stroke-linecap: round;
        stroke-linejoin: round;
      }

      .cls-2, .cls-3 {
        stroke-width: 16px;
      }

      .cls-3 {
        stroke: #94a3b8;
        stroke-miterlimit: 10;
      }

      .cls-4 {
        clip-path: url(#clippath);
      }
    </style>
    <symbol id="cloud" viewBox="0 0 360 232">
      <use width="360" height="232" xlink:href="#cloud_2"/>
    </symbol>
    <symbol id="cloud-dark" viewBox="0 0 215.3 141.1">
      <path class="cls-3" d="M8,100.7c0,17.9,14.5,32.4,32.4,32.4h129.8s1.5,0,2.3,0c19.2,0,34.8-15.6,34.8-34.8,0-17-12.2-31.1-28.3-34.1.3-1.7.5-3.5.5-5.3,0-17.9-14.5-32.4-32.4-32.4-6.1,0-11.7,1.7-16.6,4.6-8.6-13.9-23.9-23.1-41.4-23.1-26.9,0-48.7,21.8-48.7,48.7,0,4,.5,7.9,1.5,11.7-.5,0-1,0-1.5,0-17.9,0-32.4,14.5-32.4,32.4Z"/>
    </symbol>
    <symbol id="cloud_2" viewBox="0 0 360 232">
      <path class="cls-2" d="M296,224c30.9,0,56-25.1,56-56s-25.1-56-56-56-1.7,0-2.5.1c1.6-6.5,2.5-13.2,2.5-20.1,0-46.4-37.6-84-84-84s-56.6,16-71.4,39.9c-8.4-5-18.1-7.9-28.6-7.9-30.9,0-56,25.1-56,56s.3,6.1.8,9.1c-27.8,5.3-48.8,29.6-48.8,58.9s26.9,60,60,60"/>
    </symbol>
    <clipPath id="clippath">
      <path class="cls-1" d="M352,308c0-30.9-25.1-56-56-56s-1.7,0-2.5.1c1.6-6.5,2.5-13.2,2.5-20.1,0-46.4-37.6-84-84-84V0h236.2v308h-96.2Z"/>
    </clipPath>
    <symbol id="overcast" viewBox="0 0 448.2 372">
      <g>
        <g class="cls-4">
          <use width="215.3" height="141.1" transform="translate(195.5 164.5)" xlink:href="#cloud-dark"/>
        </g>
        <use width="360" height="232" transform="translate(0 140)" xlink:href="#cloud"/>
      </g>
    </symbol>
  </defs>
  <!-- Generator: Adobe Illustrator 28.7.1, SVG Export Plug-In . SVG Version: 1.2.0 Build 142)  -->
  <g>
    <g id="Livello_1">
      <use width="448.2" height="372" transform="translate(28.8 -14.8) scale(.8)" xlink:href="#overcast"/>
    </g>
  </g>
</svg>